HIERARCHY
ROOT Hips
{
	OFFSET -3.958830 18.904000 13.208200
	CHANNELS 6 Xposition Yposition Zposition Zrotation Yrotation Xrotation 
	JOINT LHipJoint
	{
		OFFSET 0.000000 0.000000 0.000000
		CHANNELS 3 Zrotation Yrotation Xrotation
		JOINT LeftUpLeg
		{
			OFFSET 1.800000 -1.400000 0.085000
			CHANNELS 3 Zrotation Yrotation Xrotation
			JOINT LeftLeg
			{
				OFFSET 2.215000 -6.000000 0.000000
				CHANNELS 3 Zrotation Yrotation Xrotation
				JOINT LeftFoot
				{
					OFFSET 2.500000 -6.900000 0.000000
					CHANNELS 3 Zrotation Yrotation Xrotation
					JOINT LeftToeBase
					{
						OFFSET 0.200000 -0.500000 1.950000
						CHANNELS 3 Zrotation Yrotation Xrotation
						End Site
						{
							OFFSET 0.000000 0.000000 0.000000
						}
					}
				}
			}
		}
	}
	JOINT RHipJoint
	{
		OFFSET 0.000000 0.000000 0.000000
		CHANNELS 3 Zrotation Yrotation Xrotation
		JOINT RightUpLeg
		{
			OFFSET -1.800000 -1.400000 0.085000
			CHANNELS 3 Zrotation Yrotation Xrotation
			JOINT RightLeg
			{
				OFFSET -2.215000 -6.000000 0.000000
				CHANNELS 3 Zrotation Yrotation Xrotation
				JOINT RightFoot
				{
					OFFSET -2.500000 -6.900000 0.000000
					CHANNELS 3 Zrotation Yrotation Xrotation
					JOINT RightToeBase
					{
						OFFSET -0.200000 -0.500000 1.950000
						CHANNELS 3 Zrotation Yrotation Xrotation
						End Site
						{
							OFFSET 0.000000 0.000000 0.000000
						}
					}
				}
			}
		}
	}
	JOINT LowerBack
	{
		OFFSET 0.000000 0.000000 0.000000
		CHANNELS 3 Zrotation Yrotation Xrotation
		JOINT Spine
		{
			OFFSET -0.087000 1.940000 -0.288900
			CHANNELS 3 Zrotation Yrotation Xrotation
			JOINT Spine1
			{
				OFFSET 0.000000 1.950000 0.060000
				CHANNELS 3 Zrotation Yrotation Xrotation
				JOINT Neck
				{
					OFFSET 0.000000 0.000000 0.000000
					CHANNELS 3 Zrotation Yrotation Xrotation
					JOINT Neck1
					{
						OFFSET 0.000000 1.600000 0.340000
						CHANNELS 3 Zrotation Yrotation Xrotation
						JOINT Head
						{
							OFFSET 0.000000 1.667000 -0.240000
							CHANNELS 3 Zrotation Yrotation Xrotation
							End Site
							{
								OFFSET 0.000000 0.000000 0.000000
							}
						}
					}
				}
				JOINT LeftShoulder
				{
					OFFSET 0.000000 0.000000 0.000000
					CHANNELS 3 Zrotation Yrotation Xrotation
					JOINT LeftArm
					{
						OFFSET 2.700000 1.550000 -0.730000
						CHANNELS 3 Zrotation Yrotation Xrotation
						JOINT LeftForeArm
						{
							OFFSET 5.450000 0.000000 0.000000
							CHANNELS 3 Zrotation Yrotation Xrotation
							JOINT LeftHand
							{
								OFFSET 3.450000 0.000000 0.000000
								CHANNELS 3 Zrotation Yrotation Xrotation
								JOINT LeftHandIndex1
								{
									OFFSET 0.750000 0.000000 0.000000
									CHANNELS 3 Zrotation Yrotation Xrotation
									End Site
									{
										OFFSET 0.000000 0.000000 0.000000
									}
								}
							}
						}
					}
				}
				JOINT RightShoulder
				{
					OFFSET 0.000000 0.000000 0.000000
					CHANNELS 3 Zrotation Yrotation Xrotation
					JOINT RightArm
					{
						OFFSET -2.700000 1.550000 -0.730000
						CHANNELS 3 Zrotation Yrotation Xrotation
						JOINT RightForeArm
						{
							OFFSET -5.450000 0.000000 0.000000
							CHANNELS 3 Zrotation Yrotation Xrotation
							JOINT RightHand
							{
								OFFSET -3.450000 0.000000 0.000000
								CHANNELS 3 Zrotation Yrotation Xrotation
								JOINT RightHandIndex1
								{
									OFFSET -0.750000 0.000000 0.000000
									CHANNELS 3 Zrotation Yrotation Xrotation
									End Site
									{
										OFFSET 0.000000 0.000000 0.000000
									}
								}
							}
						}
					}
				}
			}
		}
	}
}
MOTION
Frames: 13
Frame Time: 0.016667
-0.914770 17.731960 -0.461950 -8.336936 16.063028 -0.823612 -15.118365 12.507601 2.724782 14.821643 0.177739 -23.012804 -6.792287 6.734694 14.971757 -1.096434 5.021202 3.022331 -0.381190 -0.783270 -0.551870 18.313078 -11.192359 2.988333 -5.293542 2.303153 -9.130718 16.250920 -7.517795 14.169570 -0.136098 -4.797788 2.898962 -0.110360 1.152130 0.061150 -3.960705 0.289050 -7.446686 1.905760 4.838863 12.959552 -12.305130 10.065877 13.520908 3.265483 -1.598930 -9.923917 -4.102059 -7.493741 32.567704 6.267920 -14.681430 -6.648620 2.730737 -4.012452 5.758801 -13.272632 -7.127447 7.229001 156.196382 -34.940078 -123.640171 -4.337212 2.826788 0.511790 0.486250 -0.622640 0.129520 -8.831275 8.893269 3.542891 -1.559980 9.316358 -6.700672 -27.792911 65.013275 -13.594295 1.321490 -1.184470 -0.793230 0.850600 0.772290 -0.079120 
-0.912280 17.726900 -0.533560 -8.387730 16.319523 0.393746 -15.118557 12.375476 2.833348 14.437060 0.125808 -24.813316 -7.019864 6.666287 14.727178 -1.113801 4.954654 3.016581 -0.388700 -0.798420 -0.552880 18.324035 -11.122205 3.044197 -5.251077 2.865888 -10.428990 16.697979 -7.197495 13.425714 -0.112743 -4.650064 2.922037 -0.123570 1.140250 0.076720 -3.975819 0.397848 -7.545421 1.932636 5.269210 14.115817 -12.343542 10.750152 14.084748 3.352441 -1.155666 -10.306390 -3.439468 -7.610558 33.429781 6.948030 -14.730570 -6.988500 3.412103 -4.694199 6.157901 -13.785575 -7.273530 7.347064 157.612342 -35.004768 -128.125810 -4.322710 2.858088 0.532670 0.471590 -0.606190 0.112950 -9.660627 9.513077 3.736650 -1.678272 11.951605 -6.277718 -20.635601 54.788699 -7.450898 1.394654 -1.244714 -0.786230 0.836490 0.790790 -0.082580 
-0.910680 17.716830 -0.604740 -8.310625 16.259197 1.263804 -15.117484 12.272676 2.915964 13.991066 0.142279 -26.533911 -7.064534 6.735028 15.246558 -1.121413 4.946624 2.994528 -0.375900 -0.787650 -0.541390 18.332882 -11.073471 3.096160 -5.450650 3.464070 -11.566739 17.120077 -6.956524 13.059494 -0.102615 -4.555755 2.935035 -0.122870 1.122570 0.091600 -3.988359 0.519335 -7.627023 1.983180 5.642592 15.593415 -12.534425 11.446895 14.846389 3.634863 -0.942426 -10.720546 -3.046792 -7.856836 33.879023 6.965070 -14.656990 -7.514110 4.192990 -5.006572 6.460953 -15.049548 -7.392497 7.331058 158.437256 -34.989629 -131.602450 -4.300100 2.892593 0.549330 0.458960 -0.585860 0.108020 -10.973067 10.105684 3.985122 -1.707034 15.077010 -5.522965 -18.219499 43.341813 -4.758631 1.460298 -1.226990 -0.773940 0.825420 0.791580 -0.086170 
-0.906470 17.705370 -0.660440 -8.207492 15.709824 2.254471 -15.098362 12.160370 2.987954 13.611881 0.201779 -27.888355 -7.225670 6.781868 15.386639 -1.122765 4.887629 2.984274 -0.358040 -0.759410 -0.510410 18.356364 -11.045007 3.153966 -5.731120 4.057166 -12.736915 17.457035 -6.679516 12.658077 -0.102029 -4.418329 2.966644 -0.123350 1.067780 0.077960 -4.038760 0.703188 -7.713449 2.289737 6.266549 16.713896 -13.009862 12.390401 15.482855 3.803933 -0.703687 -11.293451 -2.815207 -8.255135 35.087863 7.530620 -14.709030 -8.971900 4.757243 -5.552575 6.678701 -15.357517 -7.285888 7.016077 159.317933 -35.419897 -135.550564 -4.241277 2.891877 0.587770 0.413620 -0.541390 0.090630 -11.886142 10.903437 4.505539 -1.681148 17.050566 -4.712673 -17.923250 33.567585 -3.631340 1.561557 -1.155325 -0.761410 0.823590 0.777910 -0.098780 
-0.905250 17.681670 -0.698150 -7.990056 14.598339 3.306235 -15.093798 12.072614 3.068830 13.498614 0.379559 -29.020928 -7.756623 7.014810 15.647186 -1.112705 4.933908 2.926707 -0.367420 -0.751480 -0.533590 18.368419 -10.988573 3.191197 -6.011693 4.619298 -13.868733 17.575901 -6.386139 12.328160 -0.080177 -4.285027 3.003183 -0.129680 1.038840 0.067550 -4.037272 0.797947 -7.777028 2.167279 7.186734 17.533634 -13.151583 13.513704 15.854660 3.716819 -0.932271 -11.760719 -3.437673 -8.309484 36.079028 8.937930 -15.105630 -10.194930 5.168158 -5.611148 6.804763 -16.011280 -7.287978 6.925979 160.058974 -35.689526 -138.569851 -4.206164 2.898129 0.613740 0.383610 -0.518520 0.073790 -12.171535 11.593158 4.878599 -2.382746 18.113255 -3.905608 -17.183986 25.769858 -2.694609 1.668361 -1.072828 -0.752790 0.816050 0.790790 -0.097430 
-0.895680 17.655400 -0.738180 -7.978238 14.554521 4.261094 -15.077191 11.948401 3.181630 13.237436 0.341439 -30.820902 -7.882110 7.242970 16.622691 -1.101357 5.002227 2.872591 -0.364190 -0.736970 -0.537050 18.398227 -10.924608 3.245449 -6.214738 5.086495 -14.731548 18.046552 -6.154853 11.730021 -0.077639 -4.189761 3.027965 -0.132290 1.016450 0.060700 -4.102332 0.914101 -7.883834 2.746015 7.426652 18.648013 -13.800480 13.988397 15.858081 3.738411 -1.144893 -11.947624 -4.010286 -8.215448 36.931046 10.019660 -15.247580 -11.300740 4.936747 -5.584381 6.667241 -16.088653 -7.346567 6.633136 160.162987 -35.852348 -139.440244 -4.178045 2.892348 0.635940 0.357300 -0.495190 0.066160 -12.096747 11.872989 5.081206 -3.096801 18.435558 -3.363925 -16.272114 21.220916 -2.081885 1.746138 -1.004755 -0.744250 0.816020 0.791750 -0.096380 
-0.886560 17.628070 -0.779790 -7.802320 15.043606 4.806711 -15.073460 11.860537 3.292334 12.775037 0.154031 -32.329493 -7.991767 7.425612 17.640266 -1.093670 5.079138 2.820800 -0.354930 -0.730570 -0.526120 18.408301 -10.867652 3.282820 -6.585644 5.415192 -15.271514 18.455008 -6.019915 11.310188 -0.083478 -4.139781 3.029713 -0.137600 0.992960 0.070290 -4.130927 0.959408 -7.978728 3.072644 7.412881 20.263287 -14.210257 14.179339 15.830774 3.796093 -1.221281 -12.020531 -4.299849 -8.369481 37.471996 10.886940 -15.457640 -12.380730 4.483047 -5.587383 6.377290 -15.661715 -7.284459 6.110874 160.144416 -36.232982 -140.212339 -4.153094 2.898124 0.662220 0.334250 -0.470000 0.057290 -11.872278 12.041147 5.332753 -4.074568 17.808178 -3.306896 -15.518285 19.296881 -1.719099 1.784645 -0.965720 -0.733460 0.804130 0.790760 -0.100090 
-0.880330 17.598480 -0.814260 -7.633799 15.031018 5.100668 -15.048823 11.765754 3.364398 12.466542 0.021706 -33.354919 -8.077475 7.640202 18.692342 -1.082437 5.188223 2.769370 -0.340480 -0.719620 -0.509330 18.436160 -10.868608 3.312612 -6.950513 5.732047 -15.834004 18.758131 -6.004090 11.431259 -0.091653 -4.135938 3.016056 -0.134720 0.983020 0.080280 -4.208960 1.134670 -8.045103 3.369465 7.408590 21.766417 -14.971609 14.362722 15.678078 3.868067 -1.047665 -11.941112 -3.950511 -8.365805 37.698922 11.385880 -15.267980 -12.919670 4.250533 -5.313554 5.908223 -14.696104 -7.130566 5.520916 159.869936 -36.431759 -139.971474 -4.137231 2.914195 0.675260 0.324230 -0.454450 0.056150 -11.901274 11.766413 5.520059 -3.874600 17.494314 -3.151373 -14.928122 18.521990 -1.556135 1.797286 -0.956909 -0.726650 0.798980 0.785040 -0.103030 
-0.874030 17.572130 -0.838640 -7.451238 14.903425 5.091920 -15.060072 11.741366 3.431772 12.288976 -0.051829 -34.227008 -8.055191 7.970313 20.136375 -1.064147 5.358785 2.688673 -0.332170 -0.711480 -0.483670 18.428091 -10.824984 3.323582 -7.370431 6.043236 -16.257356 19.172977 -6.126765 12.004069 -0.105505 -4.166788 2.988840 -0.134630 0.956270 0.076980 -4.180164 1.113646 -8.088394 3.102945 7.503226 23.149258 -14.957909 14.518351 15.715752 3.874678 -0.910812 -12.003049 -3.799193 -8.291786 38.170914 11.428760 -14.854110 -13.393730 4.004039 -5.220080 5.696369 -14.131227 -6.834804 5.161977 159.964085 -36.393515 -140.286974 -4.120377 2.910376 0.692940 0.306240 -0.435150 0.042870 -11.743678 11.687869 5.783982 -3.680967 16.724697 -3.360515 -15.221793 18.488545 -1.600826 1.806364 -0.948377 -0.724330 0.794000 0.778710 -0.115710 
-0.862480 17.546930 -0.857660 -7.652595 14.626709 4.754607 -15.062305 11.715230 3.497747 12.552242 0.046084 -34.988568 -8.002997 8.367076 21.685923 -1.019010 5.587028 2.580342 -0.313700 -0.690480 -0.469140 18.433714 -10.785678 3.326113 -7.464585 6.360448 -16.495667 19.516563 -6.324123 12.831596 -0.135018 -4.228125 2.954148 -0.137770 0.927840 0.097700 -4.183274 1.099731 -8.144268 3.377500 7.385590 24.326984 -14.902934 14.528303 15.890665 3.865864 -0.875549 -12.179754 -3.839916 -7.884315 38.899572 11.618040 -14.312510 -13.602000 3.742637 -5.390538 5.848782 -13.970202 -6.230650 4.995023 160.278921 -35.823194 -140.596788 -4.106928 2.925762 0.705110 0.292630 -0.405750 0.043110 -11.508437 11.814922 5.917397 -3.866522 16.283054 -3.559304 -15.603649 18.096202 -1.624159 1.825342 -0.951929 -0.698930 0.764460 0.764750 -0.117640 
-0.849820 17.519100 -0.866860 -7.723249 14.220450 4.214855 -15.078428 11.713956 3.554359 12.862483 0.154832 -35.505359 -8.015602 8.899038 23.541948 -0.983231 5.914530 2.441003 -0.312880 -0.697240 -0.455160 18.425261 -10.740632 3.309877 -7.730285 6.617535 -16.573778 19.826328 -6.600305 13.844860 -0.153891 -4.326417 2.905961 -0.144340 0.915140 0.108280 -4.142936 1.029066 -8.176156 3.288443 7.316061 25.347024 -14.621971 14.504297 16.043489 3.884715 -0.840708 -12.270802 -3.757885 -7.419806 39.183648 11.635900 -13.668320 -13.623790 3.497753 -5.541641 6.030355 -13.901508 -5.507726 4.848349 160.512095 -35.087131 -140.543116 -4.111361 2.924255 0.718950 0.287880 -0.395660 0.031410 -11.323159 11.951167 5.910296 -4.306846 15.971909 -3.802737 -15.664599 18.516794 -1.634948 1.822007 -0.950066 -0.696730 0.749100 0.767340 -0.128470 
-0.834930 17.495490 -0.865010 -7.927256 13.568688 3.217426 -15.089146 11.745007 3.563581 13.442073 0.421132 -35.369556 -8.078546 9.492957 25.348445 -0.954773 6.283250 2.282939 -0.308880 -0.702390 -0.435300 18.418248 -10.724619 3.283435 -7.894515 6.794248 -16.202650 20.081795 -6.961686 15.055928 -0.180576 -4.473264 2.841886 -0.143710 0.901670 0.113840 -4.109622 0.965832 -8.188079 3.415451 7.258441 26.270389 -14.221361 14.562851 16.370884 3.940062 -0.882239 -12.231405 -3.852739 -6.888714 39.718929 11.650860 -13.019560 -13.853940 3.140720 -5.661512 6.057788 -13.648689 -5.244851 4.782888 160.507225 -34.666310 -140.012998 -4.116392 2.914434 0.737630 0.281220 -0.388100 0.014610 -11.094456 12.071002 5.826061 -5.310774 15.636682 -3.987938 -15.218088 19.052880 -1.530353 1.811293 -0.936566 -0.701930 0.741100 0.773400 -0.143860 
-0.818520 17.477250 -0.851830 -8.026178 12.781852 2.047120 -15.094191 11.808232 3.518952 13.891107 0.725606 -34.797320 -7.935888 9.995130 26.994843 -0.917510 6.587796 2.161227 -0.288830 -0.685410 -0.407780 18.408886 -10.741485 3.263300 -8.200112 6.973035 -15.758474 20.348192 -7.402808 16.499849 -0.231678 -4.664243 2.765949 -0.137710 0.883500 0.125400 -4.080173 0.930421 -8.175944 3.451507 7.262034 26.995619 -13.904169 14.679944 16.742383 4.055900 -0.709659 -12.235785 -3.543715 -6.603904 40.282278 11.230110 -12.298010 -14.132260 2.728201 -5.943550 6.154365 -13.056945 -4.811225 4.901309 161.210174 -34.004295 -140.927123 -4.113542 2.912609 0.755170 0.273690 -0.367130 0.014450 -10.915113 12.223034 5.756108 -5.895105 15.335655 -4.311652 -15.440134 19.938746 -1.615468 1.796135 -0.946643 -0.696160 0.735520 0.762650 -0.155180 
